<?xml version="1.0" encoding="iso-8859-1"?>
<!-- Uploaded to: SVG Repo, www.svgrepo.com, Generator: SVG Repo Mixer Tools -->
<svg fill="#000000" version="1.1" id="Layer_1" xmlns="http://www.w3.org/2000/svg" xmlns:xlink="http://www.w3.org/1999/xlink" 
	 viewBox="0 0 512 512" xml:space="preserve">
<g>
	<g>
		<path d="M435.2,76.8H384c0-14.14-11.46-25.6-25.6-25.6h-25.6V25.6c0-14.14-11.46-25.6-25.6-25.6H204.8
			c-14.14,0-25.6,11.46-25.6,25.6v25.6h-25.6c-14.14,0-25.6,11.46-25.6,25.6H76.8c-14.14,0-25.6,11.46-25.6,25.6v384
			c0,14.14,11.46,25.6,25.6,25.6h358.4c14.14,0,25.6-11.46,25.6-25.6v-384C460.8,88.26,449.34,76.8,435.2,76.8z M153.6,76.8h51.2
			V25.6h102.4v51.2h51.2v25.6H153.6V76.8z M435.2,486.4H76.8v-384H128c0,14.14,11.46,25.6,25.6,25.6h204.8
			c14.14,0,25.6-11.46,25.6-25.6h51.2V486.4z"/>
	</g>
</g>
<g>
	<g>
		<rect x="128" y="179.2" width="256" height="25.6"/>
	</g>
</g>
<g>
	<g>
		<rect x="128" y="256" width="256" height="25.6"/>
	</g>
</g>
</svg>