<svg height="24" viewBox="0 0 24 24" width="24" xmlns="http://www.w3.org/2000/svg"><path d="m14 8h.5c.8284271 0 1.5.67157288 1.5 1.5 0 .27614237-.2238576.5-.5.5s-.5-.22385763-.5-.5-.2238576-.5-.5-.5h-5c-.27614237 0-.5.22385763-.5.5v1.1327046c0 .2488252.18296495.4597855.42928932.4949747l5.28284268.7546919c.7389731.1055675 1.287868.7384486 1.287868 1.4849242v1.1327046c0 .8284271-.6715729 1.5-1.5 1.5h-.5v.5c0 .2761424-.2238576.5-.5.5s-.5-.2238576-.5-.5v-.5h-2v.5c0 .2761424-.2238576.5-.5.5s-.5-.2238576-.5-.5v-.5h-.5c-.82842712 0-1.5-.6715729-1.5-1.5 0-.2761424.22385763-.5.5-.5s.5.2238576.5.5.22385763.5.5.5h5c.2761424 0 .5-.2238576.5-.5v-1.1327046c0-.2488252-.182965-.4597855-.4292893-.4949747l-5.28284273-.7546919c-.73897311-.1055675-1.28786797-.7384486-1.28786797-1.4849242v-1.1327046c0-.82842712.67157288-1.5 1.5-1.5h.5v-.5c0-.27614237.2238576-.5.5-.5s.5.22385763.5.5v.5h2v-.5c0-.27614237.2238576-.5.5-.5s.5.22385763.5.5zm-11 4c0-4.97056275 4.02943725-9 9-9 4.9705627 0 9 4.02943725 9 9 0 4.9705627-4.0294373 9-9 9-1.6469205 0-3.22942126-.4435749-4.61088458-1.2693255l-3.73100154 1.2436671c-.42259327.1408645-.80453986-.2995236-.60532748-.6979484l1.56411725-3.1282345c-1.04540325-1.4962711-1.61690365-3.2795232-1.61690365-5.1481587zm4.29435609 6.7081684c.14261312-.0475377.29904647-.0283873.42598095.0521483 1.26976115.8056195 2.74201026 1.2396833 4.27966296 1.2396833 4.418278 0 8-3.581722 8-8s-3.581722-8-8-8-8 3.581722-8 8c0 1.7564675.56695793 3.4257185 1.59951254 4.8001796.1138381.1515329.13221235.3544046.04745228.5239247l-1.15991666 2.3198334z"/></svg>