<svg fill="none" height="24" viewBox="0 0 24 24" width="24" xmlns="http://www.w3.org/2000/svg"><path clip-rule="evenodd" d="m4.5898 11.411 7.517-7.517c.2587-.25867.6781-.25867.9368.00001l4.1761 4.17612c.2587.25868.2587.67807 0 .93674l-7.51703 7.51703c-.25867.2587-.67806.2587-.93674 0l-4.17612-4.1761c-.25868-.2587-.25868-.6781-.00001-.9368zm-1.20207 2.1389c-.92257-.9226-.92257-2.4184-.00001-3.3409l7.51708-7.51708c.9225-.92256 2.4183-.92256 3.3409 0l4.1761 4.17613c.9225.92257.9225 2.41834 0 3.34095l-1.4919 1.4918 3.3458 3.3458c1.2518 1.2518 1.2518 3.2814 0 4.5332s-3.2814 1.2518-4.5332 0l-3.3458-3.3458-1.4919 1.492c-.92261.9226-2.41838.9225-3.34095 0zm10.21107 1.4821 3.3457 3.3457c.588.588 1.5412.588 2.1291 0 .5879-.5879.5879-1.5411 0-2.129l-3.3458-3.3458z" fill="#fff" fill-rule="evenodd"/><path d="m2.89844 21.1017h4.72475" stroke="#df1463" stroke-linecap="round" stroke-width="1.7"/></svg>